# xmcd
#
# Track frame offsets: 
#        150
#        21961
#        33460
#        46246
#        58886
#        77405
#        89353
#        102628
#        115007
#        127530
#        140619
#        152940
#        165772
#        177619
#        192367
#
# Disc length: 3045 seconds
#
# Revision: 0
# Processed by: cddbd v1.5.2PL0 Copyright (c) Steve Scherf et al.
# Submitted via: ExactAudioCopyFreeDBPlugin 1.0
#
DISCID=c10be30f
DTITLE=Various Artist - The World Of Blues Power! CD 1, 2009
DYEAR=2009
DGENRE=Blues
TTITLE0=B.B. King - The Thrill Is gone
TTITLE1=Muddy Waters - Goi'n Home
TTITLE2=Brownie McGhee - I'm A Black Woman's Man
TTITLE3=John Lee Hooker - Hobo Blues
TTITLE4=Memphis Slim - Gambler's Blues
TTITLE5=Lightnin’ Hopkins - Have to Let You Go  
TTITLE6=Sonny Boy Williamson - Stop Breakin' Down
TTITLE7=Howlin' Wolf - My Mind Is Ramblin'
TTITLE8=Big Joe Williams - Please Don't Go
TTITLE9=T-Bone Walker - Mean Old World
TTITLE10=Tampa Red - Mean Misstreater Blues
TTITLE11=Robert Petway - Catfish Blues
TTITLE12=Big Joe Turner and Freddie Slack - Blues on Central Avenue
TTITLE13=Sonny Terry and Brownie McGhee - Gonna Lay My Body Down
TTITLE14=Big Joe Turner - Roll Me Baby
EXTD=
EXTT0=
EXTT1=
EXTT2=
EXTT3=
EXTT4=
EXTT5=
EXTT6=
EXTT7=
EXTT8=
EXTT9=
EXTT10=
EXTT11=
EXTT12=
EXTT13=
EXTT14=
PLAYORDER=
